<svg width="350" height="350" viewBox="0 0 350 350" fill="none" xmlns="http://www.w3.org/2000/svg">
<path d="M304.809 66.3347L320.684 50.4598L320.726 50.5015C323.247 53.0223 326.567 54.2862 329.879 54.2862C333.192 54.2862 336.512 53.0223 339.033 50.5015C344.081 45.4529 344.081 37.2377 339.033 32.196L336.63 29.7933C339.921 29.446 343.116 28.0224 345.63 25.5086C351.457 19.6822 351.457 10.1961 345.63 4.36977C339.803 -1.45659 330.317 -1.45659 324.49 4.36977C321.976 6.88365 320.553 10.0781 320.205 13.3697L317.802 10.967C312.754 5.91837 304.538 5.91837 299.496 10.967C294.447 16.0155 294.447 24.2238 299.496 29.2724L299.538 29.3141L172.268 156.591C167.761 157.32 147.08 160.862 122.072 167.952C95.9664 175.355 59.6176 188.258 34.7277 207.723C8.05984 228.57 1.20538 253.5 0.156727 270.737C-1.21833 293.229 6.532 315.792 20.3659 329.632C33.1512 342.417 53.3812 350 74.1252 350C75.8336 350 77.549 349.951 79.2643 349.84C96.5012 348.792 121.426 341.938 142.281 315.271C161.74 290.382 174.65 254.035 182.047 227.931C189.137 202.917 192.679 182.244 193.408 177.73L213.208 157.932M107.793 210.209L84.2854 186.702C92.6538 183.299 101.133 180.286 109.377 177.64C111.703 179.091 117.342 183.008 119.551 188.119C121.586 192.827 121.433 198.147 121.183 200.82C117.62 201.841 114.266 203.751 111.467 206.549L107.793 210.209ZM115.384 210.473C122.037 203.82 132.871 203.82 139.524 210.473C142.746 213.695 144.524 217.987 144.524 222.542C144.524 227.105 142.746 231.389 139.524 234.612L134.843 239.292L113.21 236.778L110.696 215.147L115.384 210.473ZM143.455 238.535C146.205 235.785 148.156 232.452 149.198 228.813C151.865 228.556 157.15 228.403 161.886 230.445C166.997 232.653 170.914 238.292 172.366 240.619C169.72 248.855 166.706 257.341 163.303 265.709L139.795 242.202L143.455 238.535ZM187.838 177.362C187.533 179.209 186.901 182.841 185.915 187.827C184.748 186.383 183.29 184.904 181.484 183.626C177.692 180.945 172.963 180.209 169.963 180.029C169.789 177.022 169.053 172.299 166.365 168.501C165.087 166.695 163.615 165.237 162.164 164.07C167.157 163.084 170.782 162.459 172.629 162.147L187.838 177.362ZM161.83 171.716C164.858 176.001 164.435 182.522 164.435 182.584C164.372 183.39 164.671 184.181 165.24 184.751C165.81 185.32 166.601 185.626 167.407 185.563C167.47 185.563 173.998 185.14 178.282 188.167C181.81 190.661 183.637 194.258 184.283 195.744C183.324 200.188 182.178 205.223 180.824 210.688C179.13 207.897 176.685 204.709 173.234 201.772C167.004 196.473 158.893 195.57 154.483 195.515C154.427 191.105 153.518 182.994 148.226 176.765C145.295 173.32 142.107 170.876 139.309 169.175C144.774 167.82 149.809 166.675 154.247 165.716C155.74 166.362 159.337 168.195 161.83 171.716ZM213.208 157.932L291.003 80.1402L213.208 157.932ZM291.003 80.1402L304.809 66.3347L291.003 80.1402ZM328.421 8.30031C330.254 6.46698 332.657 5.55032 335.06 5.55032C337.463 5.55032 339.873 6.46698 341.699 8.30031C345.359 11.96 345.359 17.9183 341.699 21.585C338.039 25.2447 332.081 25.2447 328.421 21.585L328.414 21.578C324.761 17.9183 324.761 11.96 328.421 8.30031ZM303.427 14.8975C304.864 13.4531 306.76 12.7378 308.649 12.7378C310.538 12.7378 312.434 13.46 313.872 14.8975L335.095 36.1196C337.977 39.0015 337.977 43.689 335.095 46.5709C332.213 49.4529 327.525 49.4529 324.643 46.5709L303.427 25.3488C300.545 22.4669 300.545 17.7794 303.427 14.8975ZM316.754 46.5293L190.811 172.473L177.526 159.188L303.468 33.2516L316.754 46.5293ZM130.961 171.32C132.989 172.022 138.975 174.459 143.996 180.362C149.92 187.32 148.858 197.987 148.851 198.084C148.76 198.924 149.052 199.758 149.649 200.355C150.247 200.952 151.08 201.251 151.92 201.154C152.024 201.14 162.636 200.042 169.643 206.001C175.546 211.022 177.991 217.001 178.685 219.035C177.414 223.806 176.005 228.806 174.449 233.938C172.053 230.889 168.497 227.258 164.087 225.355C159.004 223.153 153.552 222.98 150.066 223.181C150.073 222.966 150.08 222.758 150.08 222.542C150.08 216.501 147.726 210.813 143.455 206.542C138.878 201.966 132.815 199.772 126.815 199.938C127.016 196.452 126.843 191.001 124.641 185.911C122.738 181.508 119.106 177.952 116.058 175.549C121.197 174.001 126.19 172.584 130.961 171.32ZM5.69863 271.07C6.67784 254.973 13.1087 231.674 38.1445 212.098C49.7214 203.049 63.9234 195.404 78.7435 189.015L105.147 215.417L107.96 239.605C108.106 240.882 109.12 241.896 110.398 242.042L134.586 244.855L160.99 271.257C154.608 286.07 146.955 300.278 137.906 311.854C118.329 336.896 95.0289 343.319 78.931 344.299C68.0486 344.958 56.937 343.243 47.0268 339.625C51.1589 333.639 57.5412 320.104 43.7211 306.278C34.1165 296.674 24.63 297 18.3658 298.959C15.0532 299.993 12.3031 301.584 10.3655 302.945C6.74729 293.035 5.03194 281.938 5.69863 271.07ZM12.5184 308.236C14.0323 307.063 16.6644 305.306 20.0187 304.257C27.0051 302.07 33.6582 304.07 39.7904 310.202C51.7492 322.16 44.8462 333.549 41.7627 337.472C35.0263 334.41 29.026 330.431 24.2967 325.695C19.5603 320.965 15.581 314.972 12.5184 308.236ZM73.8683 288.785C75.6253 290.542 77.9309 291.417 80.2366 291.417C82.5422 291.417 84.8479 290.542 86.6049 288.785L90.0009 285.389C93.5149 281.875 93.5149 276.167 90.0009 272.653L77.3337 259.987C73.8196 256.473 68.1111 256.473 64.597 259.987L61.201 263.382C57.687 266.896 57.687 272.605 61.201 276.118L73.8683 288.785ZM65.1318 267.313L68.5277 263.917C69.875 262.577 72.0626 262.57 73.4099 263.917L86.0771 276.584C87.4244 277.931 87.4244 280.118 86.0771 281.459L82.6811 284.854C81.3338 286.202 79.1463 286.202 77.799 284.854L65.1318 272.188C63.7914 270.848 63.7914 268.66 65.1318 267.313Z" fill="white"/>
</svg>
