<svg width="60" height="60" viewBox="0 0 60 60" fill="none" xmlns="http://www.w3.org/2000/svg">
<path d="M52.2529 11.3717L54.9745 8.65026L54.9816 8.6574C55.4138 9.08954 55.9829 9.3062 56.5507 9.3062C57.1186 9.3062 57.6877 9.08954 58.1199 8.6574C58.9854 7.79193 58.9854 6.3836 58.1199 5.51932L57.7079 5.10742C58.2722 5.04789 58.8199 4.80384 59.2509 4.37289C60.2497 3.37409 60.2497 1.74791 59.2509 0.749103C58.252 -0.249701 56.6257 -0.249701 55.6269 0.749103C55.1959 1.18005 54.9519 1.72767 54.8923 2.29195L54.4804 1.88005C53.6149 1.01458 52.2065 1.01458 51.3422 1.88005C50.4767 2.74552 50.4767 4.15266 51.3422 5.01813L51.3493 5.02527L29.5317 26.8442C28.7591 26.9692 25.2137 27.5764 20.9266 28.7918C16.4514 30.0609 10.2202 32.2728 5.95331 35.6096C1.38169 39.1834 0.206637 43.4572 0.0268674 46.412C-0.208857 50.2679 1.11977 54.1357 3.4913 56.5084C5.68306 58.7 9.15107 60 12.7072 60C13 60 13.2941 59.9917 13.5882 59.9726C16.5431 59.7929 20.8159 58.6179 24.391 54.0465C27.7269 49.7798 29.9401 43.5489 31.208 39.0739C32.4235 34.7858 33.0307 31.2418 33.1557 30.468L36.5499 27.074M18.4789 36.0358L14.4489 32.0061C15.8835 31.4228 17.3371 30.9061 18.7503 30.4525C19.1491 30.7013 20.1158 31.3728 20.4944 32.249C20.8432 33.0561 20.8171 33.968 20.7742 34.4263C20.1635 34.6013 19.5884 34.9287 19.1086 35.4085L18.4789 36.0358ZM19.7801 36.0811C20.9206 34.9406 22.7779 34.9406 23.9184 36.0811C24.4708 36.6334 24.7756 37.3692 24.7756 38.1501C24.7756 38.9322 24.4708 39.6668 23.9184 40.2191L23.116 41.0215L19.4075 40.5906L18.9765 36.8823L19.7801 36.0811ZM24.5922 40.8918C25.0637 40.4203 25.3982 39.8489 25.5768 39.2251C26.0339 39.1811 26.9399 39.1549 27.7519 39.5049C28.6281 39.8834 29.2996 40.8501 29.5484 41.2489C29.0948 42.6608 28.5781 44.1156 27.9947 45.5501L23.9648 41.5203L24.5922 40.8918ZM32.2009 30.4049C32.1485 30.7216 32.0402 31.3442 31.8711 32.1989C31.6711 31.9513 31.4211 31.6978 31.1115 31.4787C30.4615 31.0192 29.6508 30.893 29.1365 30.862C29.1067 30.3466 28.9805 29.5371 28.5198 28.8859C28.3007 28.5763 28.0483 28.3263 27.7995 28.1263C28.6555 27.9573 29.2769 27.8502 29.5936 27.7966L32.2009 30.4049ZM27.7424 29.4371C28.2614 30.1716 28.1888 31.2894 28.1888 31.3001C28.1781 31.4382 28.2293 31.574 28.3269 31.6716C28.4245 31.7692 28.5602 31.8216 28.6983 31.8109C28.7091 31.8109 29.8282 31.7382 30.5627 32.2573C31.1675 32.6847 31.4806 33.3013 31.5913 33.5561C31.427 34.318 31.2306 35.1811 30.9984 36.118C30.708 35.6394 30.2889 35.093 29.6972 34.5894C28.6293 33.6811 27.2388 33.5263 26.4828 33.5168C26.4733 32.7609 26.3173 31.3704 25.4101 30.3025C24.9077 29.7121 24.3613 29.293 23.8815 29.0013C24.8184 28.7692 25.6815 28.5728 26.4423 28.4085C26.6983 28.5192 27.315 28.8335 27.7424 29.4371ZM36.5499 27.074L49.8862 13.7383L36.5499 27.074ZM49.8862 13.7383L52.2529 11.3717L49.8862 13.7383ZM56.3007 1.42291C56.615 1.10863 57.027 0.951483 57.4389 0.951483C57.8508 0.951483 58.2639 1.10863 58.577 1.42291C59.2044 2.05029 59.2044 3.07171 58.577 3.70028C57.9496 4.32766 56.9281 4.32766 56.3007 3.70028L56.2995 3.69909C55.6733 3.07171 55.6733 2.05029 56.3007 1.42291ZM52.016 2.55386C52.2625 2.30624 52.5875 2.18362 52.9113 2.18362C53.2351 2.18362 53.5601 2.30743 53.8066 2.55386L57.4448 6.19193C57.9389 6.68598 57.9389 7.48955 57.4448 7.98359C56.9508 8.47764 56.1472 8.47764 55.6531 7.98359L52.016 4.34551C51.522 3.85147 51.522 3.0479 52.016 2.55386ZM54.3006 7.97645L32.7104 29.5668L30.4329 27.2894L52.0232 5.70027L54.3006 7.97645ZM22.4505 29.3692C22.7981 29.4894 23.8243 29.9073 24.6851 30.9192C25.7006 32.112 25.5184 33.9406 25.5173 33.9573C25.5018 34.1013 25.5518 34.2442 25.6542 34.3466C25.7566 34.4489 25.8994 34.5001 26.0435 34.4835C26.0613 34.4811 27.8805 34.293 29.0817 35.3144C30.0936 36.1751 30.5127 37.2001 30.6318 37.5489C30.4139 38.3668 30.1722 39.2239 29.9055 40.1037C29.4948 39.5811 28.8853 38.9584 28.1293 38.6323C27.2578 38.2549 26.3232 38.2251 25.7256 38.2596C25.7268 38.2227 25.728 38.187 25.728 38.1501C25.728 37.1144 25.3244 36.1394 24.5922 35.4073C23.8077 34.6227 22.7683 34.2466 21.7397 34.2751C21.7742 33.6775 21.7445 32.743 21.3671 31.8704C21.0409 31.1156 20.4182 30.5061 19.8956 30.0942C20.7766 29.8287 21.6326 29.5859 22.4505 29.3692ZM0.976909 46.4691C1.14477 43.7096 2.2472 39.7156 6.53905 36.3596C8.52366 34.8085 10.9583 33.4978 13.4989 32.4025L18.0253 36.9287L18.5074 41.0751C18.5324 41.2941 18.7062 41.4679 18.9253 41.493L23.0719 41.9751L27.5983 46.5013C26.5042 49.0405 25.1922 51.4762 23.641 53.4608C20.2849 57.7536 16.2907 58.8548 13.531 59.0226C11.6655 59.1357 9.76062 58.8417 8.06174 58.2214C8.7701 57.1953 9.8642 54.875 7.49505 52.5048C5.84855 50.8584 4.22229 50.9143 3.14843 51.25C2.58055 51.4274 2.1091 51.7 1.77694 51.9334C1.15668 50.2346 0.862618 48.3322 0.976909 46.4691ZM2.14601 52.8405C2.40554 52.6393 2.85675 52.3381 3.43178 52.1584C4.62945 51.7834 5.76997 52.1262 6.82121 53.1774C8.8713 55.2274 7.68791 57.1798 7.15932 57.8524C6.00451 57.3274 4.97589 56.6453 4.16514 55.8334C3.3532 55.0226 2.67103 53.9953 2.14601 52.8405ZM12.6631 49.506C12.9643 49.8072 13.3596 49.9572 13.7548 49.9572C14.1501 49.9572 14.5454 49.8072 14.8466 49.506L15.4287 48.9239C16.0311 48.3215 16.0311 47.3429 15.4287 46.7405L13.2572 44.5691C12.6548 43.9667 11.6762 43.9667 11.0738 44.5691L10.4916 45.1513C9.8892 45.7536 9.8892 46.7322 10.4916 47.3346L12.6631 49.506ZM11.1654 45.8251L11.7476 45.2429C11.9786 45.0132 12.3536 45.012 12.5846 45.2429L14.7561 47.4143C14.987 47.6453 14.987 48.0203 14.7561 48.2501L14.1739 48.8322C13.9429 49.0631 13.5679 49.0631 13.337 48.8322L11.1654 46.6608C10.9357 46.431 10.9357 46.056 11.1654 45.8251Z" fill="#2A3F54"/>
</svg>
