<svg width="172" height="172" viewBox="0 0 172 172" fill="none" xmlns="http://www.w3.org/2000/svg">
<circle cx="86" cy="86" r="86" fill="#2A3F54"/>
<mask id="path-2-outside-1_220_106" maskUnits="userSpaceOnUse" x="34" y="34" width="104" height="104" fill="black">
<rect fill="white" x="34" y="34" width="104" height="104"/>
<path d="M123.83 54.3319L128.457 49.7054L128.469 49.7176C129.203 50.4522 130.171 50.8205 131.136 50.8205C132.102 50.8205 133.069 50.4522 133.804 49.7176C135.275 48.2463 135.275 45.8521 133.804 44.3828L133.103 43.6826C134.063 43.5814 134.994 43.1665 135.727 42.4339C137.424 40.736 137.424 37.9714 135.727 36.2735C134.028 34.5755 131.264 34.5755 129.566 36.2735C128.833 37.0061 128.418 37.937 128.317 38.8963L127.617 38.1961C126.145 36.7248 123.751 36.7248 122.282 38.1961C120.81 39.6674 120.81 42.0595 122.282 43.5308L122.294 43.543L85.2039 80.6351C83.8905 80.8476 77.8633 81.8799 70.5752 83.9461C62.9674 86.1035 52.3743 89.8638 45.1206 95.5363C37.3489 101.612 35.3513 108.877 35.0457 113.9C34.6449 120.455 36.9036 127.031 40.9352 131.064C44.6612 134.79 50.5568 137 56.6022 137C57.1 137 57.6 136.986 58.0999 136.953C63.1233 136.648 70.387 134.65 76.4647 126.879C82.1357 119.626 85.8982 109.033 88.0536 101.426C90.12 94.1359 91.1522 88.1111 91.3647 86.7956L97.1348 81.0258M66.4141 96.2609L59.5631 89.4104C62.002 88.4188 64.4731 87.5404 66.8755 86.7693C67.5535 87.1922 69.1969 88.3338 69.8405 89.8233C70.4334 91.1954 70.3891 92.7456 70.3161 93.5247C69.278 93.8222 68.3003 94.3788 67.4846 95.1945L66.4141 96.2609ZM68.6262 96.3379C70.565 94.399 73.7224 94.399 75.6613 96.3379C76.6004 97.2768 77.1185 98.5276 77.1185 99.8552C77.1185 101.185 76.6004 102.434 75.6613 103.372L74.2972 104.737L67.9927 104.004L67.2601 97.6999L68.6262 96.3379ZM76.8067 104.516C77.6083 103.715 78.1769 102.743 78.4806 101.683C79.2576 101.608 80.7978 101.563 82.1782 102.158C83.6678 102.802 84.8093 104.445 85.2323 105.123C84.4612 107.523 83.5828 109.997 82.591 112.435L75.7402 105.585L76.8067 104.516ZM89.7415 86.6883C89.6525 87.2267 89.4683 88.2851 89.1809 89.7381C88.8409 89.3172 88.4159 88.8863 87.8896 88.5138C86.7846 87.7326 85.4064 87.5181 84.5321 87.4654C84.4814 86.5892 84.2669 85.2131 83.4837 84.106C83.1112 83.5797 82.6821 83.1547 82.2592 82.8147C83.7144 82.5274 84.7707 82.3453 85.3091 82.2542L89.7415 86.6883ZM82.1621 85.0431C83.0444 86.2917 82.921 88.192 82.921 88.2102C82.9028 88.4449 82.9898 88.6758 83.1557 88.8417C83.3217 89.0076 83.5523 89.0967 83.7871 89.0785C83.8055 89.0785 85.7079 88.9549 86.9566 89.8374C87.9848 90.564 88.517 91.6122 88.7052 92.0454C88.4259 93.3406 88.092 94.8079 87.6973 96.4006C87.2036 95.587 86.4911 94.6581 85.4852 93.802C83.6698 92.2579 81.306 91.9947 80.0208 91.9786C80.0046 90.6935 79.7394 88.3297 78.1972 86.5143C77.3431 85.5106 76.4142 84.7981 75.5986 84.3022C77.1913 83.9076 78.6586 83.5738 79.9519 83.2945C80.3871 83.4826 81.4355 84.017 82.1621 85.0431ZM130.711 37.4189C131.246 36.8847 131.946 36.6175 132.646 36.6175C133.346 36.6175 134.049 36.8847 134.581 37.4189C135.647 38.4855 135.647 40.2219 134.581 41.2905C133.514 42.357 131.778 42.357 130.711 41.2905L130.709 41.2885C129.645 40.2219 129.645 38.4855 130.711 37.4189ZM123.427 39.3416C123.846 38.9206 124.399 38.7122 124.949 38.7122C125.5 38.7122 126.052 38.9226 126.471 39.3416L132.656 45.5263C133.496 46.3662 133.496 47.7322 132.656 48.5721C131.816 49.412 130.45 49.412 129.61 48.5721L123.427 42.3874C122.587 41.5475 122.587 40.1814 123.427 39.3416ZM127.311 48.56L90.6077 85.2636L86.7359 81.392L123.439 44.6905L127.311 48.56ZM73.1659 84.9276C73.7568 85.132 75.5013 85.8424 76.9647 87.5626C78.691 89.5904 78.3813 92.699 78.3794 92.7274C78.3531 92.9722 78.4381 93.2151 78.6121 93.3892C78.7862 93.5631 79.029 93.6502 79.274 93.622C79.3042 93.6179 82.3969 93.2981 84.4389 95.0345C86.1591 96.4977 86.8716 98.2402 87.0741 98.8331C86.7036 100.224 86.2927 101.681 85.8394 103.176C85.1412 102.288 84.105 101.229 82.8198 100.675C81.3383 100.033 79.7494 99.9827 78.7335 100.041C78.7356 99.9786 78.7376 99.9179 78.7376 99.8552C78.7376 98.0945 78.0515 96.437 76.8067 95.1924C75.4731 93.8586 73.7061 93.2192 71.9575 93.2677C72.0161 92.2518 71.9657 90.6631 71.3241 89.1797C70.7695 87.8965 69.7109 86.8604 68.8225 86.1601C70.3202 85.7088 71.7754 85.296 73.1659 84.9276ZM36.6607 113.997C36.9461 109.306 38.8202 102.517 46.1164 96.8113C49.4902 94.1745 53.6291 91.9463 57.9481 90.0843L65.643 97.7788L66.4626 104.828C66.5051 105.2 66.8005 105.495 67.173 105.538L74.2222 106.358L81.9171 114.052C80.0571 118.369 77.8267 122.51 75.1897 125.883C69.4843 133.181 62.6942 135.053 58.0027 135.338C54.8314 135.531 51.5931 135.031 48.705 133.976C49.9092 132.232 51.7691 128.288 47.7416 124.258C44.9425 121.459 42.1779 121.554 40.3523 122.125C39.3869 122.427 38.5855 122.89 38.0208 123.287C36.9664 120.399 36.4665 117.165 36.6607 113.997ZM38.6482 124.829C39.0894 124.487 39.8565 123.975 40.834 123.669C42.8701 123.032 44.8089 123.615 46.5961 125.402C50.0812 128.887 48.0694 132.206 47.1708 133.349C45.2077 132.457 43.459 131.297 42.0807 129.917C40.7004 128.538 39.5408 126.792 38.6482 124.829ZM56.5273 119.16C57.0393 119.672 57.7113 119.927 58.3832 119.927C59.0552 119.927 59.7272 119.672 60.2392 119.16L61.2288 118.171C62.2529 117.147 62.2529 115.483 61.2288 114.459L57.5372 110.767C56.5132 109.743 54.8495 109.743 53.8255 110.767L52.8357 111.757C51.8116 112.781 51.8116 114.445 52.8357 115.469L56.5273 119.16ZM53.9812 112.903L54.9709 111.913C55.3636 111.522 56.0011 111.52 56.3938 111.913L60.0854 115.604C60.4779 115.997 60.4779 116.635 60.0854 117.025L59.0956 118.015C58.7029 118.407 58.0654 118.407 57.6729 118.015L53.9812 114.323C53.5907 113.933 53.5907 113.295 53.9812 112.903Z"/>
</mask>
<path d="M123.83 54.3319L128.457 49.7054L128.469 49.7176C129.203 50.4522 130.171 50.8205 131.136 50.8205C132.102 50.8205 133.069 50.4522 133.804 49.7176C135.275 48.2463 135.275 45.8521 133.804 44.3828L133.103 43.6826C134.063 43.5814 134.994 43.1665 135.727 42.4339C137.424 40.736 137.424 37.9714 135.727 36.2735C134.028 34.5755 131.264 34.5755 129.566 36.2735C128.833 37.0061 128.418 37.937 128.317 38.8963L127.617 38.1961C126.145 36.7248 123.751 36.7248 122.282 38.1961C120.81 39.6674 120.81 42.0595 122.282 43.5308L122.294 43.543L85.2039 80.6351C83.8905 80.8476 77.8633 81.8799 70.5752 83.9461C62.9674 86.1035 52.3743 89.8638 45.1206 95.5363C37.3489 101.612 35.3513 108.877 35.0457 113.9C34.6449 120.455 36.9036 127.031 40.9352 131.064C44.6612 134.79 50.5568 137 56.6022 137C57.1 137 57.6 136.986 58.0999 136.953C63.1233 136.648 70.387 134.65 76.4647 126.879C82.1357 119.626 85.8982 109.033 88.0536 101.426C90.12 94.1359 91.1522 88.1111 91.3647 86.7956L97.1348 81.0258M66.4141 96.2609L59.5631 89.4104C62.002 88.4188 64.4731 87.5404 66.8755 86.7693C67.5535 87.1922 69.1969 88.3338 69.8405 89.8233C70.4334 91.1954 70.3891 92.7456 70.3161 93.5247C69.278 93.8222 68.3003 94.3788 67.4846 95.1945L66.4141 96.2609ZM68.6262 96.3379C70.565 94.399 73.7224 94.399 75.6613 96.3379C76.6004 97.2768 77.1185 98.5276 77.1185 99.8552C77.1185 101.185 76.6004 102.434 75.6613 103.372L74.2972 104.737L67.9927 104.004L67.2601 97.6999L68.6262 96.3379ZM76.8067 104.516C77.6083 103.715 78.1769 102.743 78.4806 101.683C79.2576 101.608 80.7978 101.563 82.1782 102.158C83.6678 102.802 84.8093 104.445 85.2323 105.123C84.4612 107.523 83.5828 109.997 82.591 112.435L75.7402 105.585L76.8067 104.516ZM89.7415 86.6883C89.6525 87.2267 89.4683 88.2851 89.1809 89.7381C88.8409 89.3172 88.4159 88.8863 87.8896 88.5138C86.7846 87.7326 85.4064 87.5181 84.5321 87.4654C84.4814 86.5892 84.2669 85.2131 83.4837 84.106C83.1112 83.5797 82.6821 83.1547 82.2592 82.8147C83.7144 82.5274 84.7707 82.3453 85.3091 82.2542L89.7415 86.6883ZM82.1621 85.0431C83.0444 86.2917 82.921 88.192 82.921 88.2102C82.9028 88.4449 82.9898 88.6758 83.1557 88.8417C83.3217 89.0076 83.5523 89.0967 83.7871 89.0785C83.8055 89.0785 85.7079 88.9549 86.9566 89.8374C87.9848 90.564 88.517 91.6122 88.7052 92.0454C88.4259 93.3406 88.092 94.8079 87.6973 96.4006C87.2036 95.587 86.4911 94.6581 85.4852 93.802C83.6698 92.2579 81.306 91.9947 80.0208 91.9786C80.0046 90.6935 79.7394 88.3297 78.1972 86.5143C77.3431 85.5106 76.4142 84.7981 75.5986 84.3022C77.1913 83.9076 78.6586 83.5738 79.9519 83.2945C80.3871 83.4826 81.4355 84.017 82.1621 85.0431ZM130.711 37.4189C131.246 36.8847 131.946 36.6175 132.646 36.6175C133.346 36.6175 134.049 36.8847 134.581 37.4189C135.647 38.4855 135.647 40.2219 134.581 41.2905C133.514 42.357 131.778 42.357 130.711 41.2905L130.709 41.2885C129.645 40.2219 129.645 38.4855 130.711 37.4189ZM123.427 39.3416C123.846 38.9206 124.399 38.7122 124.949 38.7122C125.5 38.7122 126.052 38.9226 126.471 39.3416L132.656 45.5263C133.496 46.3662 133.496 47.7322 132.656 48.5721C131.816 49.412 130.45 49.412 129.61 48.5721L123.427 42.3874C122.587 41.5475 122.587 40.1814 123.427 39.3416ZM127.311 48.56L90.6077 85.2636L86.7359 81.392L123.439 44.6905L127.311 48.56ZM73.1659 84.9276C73.7568 85.132 75.5013 85.8424 76.9647 87.5626C78.691 89.5904 78.3813 92.699 78.3794 92.7274C78.3531 92.9722 78.4381 93.2151 78.6121 93.3892C78.7862 93.5631 79.029 93.6502 79.274 93.622C79.3042 93.6179 82.3969 93.2981 84.4389 95.0345C86.1591 96.4977 86.8716 98.2402 87.0741 98.8331C86.7036 100.224 86.2927 101.681 85.8394 103.176C85.1412 102.288 84.105 101.229 82.8198 100.675C81.3383 100.033 79.7494 99.9827 78.7335 100.041C78.7356 99.9786 78.7376 99.9179 78.7376 99.8552C78.7376 98.0945 78.0515 96.437 76.8067 95.1924C75.4731 93.8586 73.7061 93.2192 71.9575 93.2677C72.0161 92.2518 71.9657 90.6631 71.3241 89.1797C70.7695 87.8965 69.7109 86.8604 68.8225 86.1601C70.3202 85.7088 71.7754 85.296 73.1659 84.9276ZM36.6607 113.997C36.9461 109.306 38.8202 102.517 46.1164 96.8113C49.4902 94.1745 53.6291 91.9463 57.9481 90.0843L65.643 97.7788L66.4626 104.828C66.5051 105.2 66.8005 105.495 67.173 105.538L74.2222 106.358L81.9171 114.052C80.0571 118.369 77.8267 122.51 75.1897 125.883C69.4843 133.181 62.6942 135.053 58.0027 135.338C54.8314 135.531 51.5931 135.031 48.705 133.976C49.9092 132.232 51.7691 128.288 47.7416 124.258C44.9425 121.459 42.1779 121.554 40.3523 122.125C39.3869 122.427 38.5855 122.89 38.0208 123.287C36.9664 120.399 36.4665 117.165 36.6607 113.997ZM38.6482 124.829C39.0894 124.487 39.8565 123.975 40.834 123.669C42.8701 123.032 44.8089 123.615 46.5961 125.402C50.0812 128.887 48.0694 132.206 47.1708 133.349C45.2077 132.457 43.459 131.297 42.0807 129.917C40.7004 128.538 39.5408 126.792 38.6482 124.829ZM56.5273 119.16C57.0393 119.672 57.7113 119.927 58.3832 119.927C59.0552 119.927 59.7272 119.672 60.2392 119.16L61.2288 118.171C62.2529 117.147 62.2529 115.483 61.2288 114.459L57.5372 110.767C56.5132 109.743 54.8495 109.743 53.8255 110.767L52.8357 111.757C51.8116 112.781 51.8116 114.445 52.8357 115.469L56.5273 119.16ZM53.9812 112.903L54.9709 111.913C55.3636 111.522 56.0011 111.52 56.3938 111.913L60.0854 115.604C60.4779 115.997 60.4779 116.635 60.0854 117.025L59.0956 118.015C58.7029 118.407 58.0654 118.407 57.6729 118.015L53.9812 114.323C53.5907 113.933 53.5907 113.295 53.9812 112.903Z" fill="white"/>
<path d="M123.83 54.3319L128.457 49.7054L128.469 49.7176C129.203 50.4522 130.171 50.8205 131.136 50.8205C132.102 50.8205 133.069 50.4522 133.804 49.7176C135.275 48.2463 135.275 45.8521 133.804 44.3828L133.103 43.6826C134.063 43.5814 134.994 43.1665 135.727 42.4339C137.424 40.736 137.424 37.9714 135.727 36.2735C134.028 34.5755 131.264 34.5755 129.566 36.2735C128.833 37.0061 128.418 37.937 128.317 38.8963L127.617 38.1961C126.145 36.7248 123.751 36.7248 122.282 38.1961C120.81 39.6674 120.81 42.0595 122.282 43.5308L122.294 43.543L85.2039 80.6351C83.8905 80.8476 77.8633 81.8799 70.5752 83.9461C62.9674 86.1035 52.3743 89.8638 45.1206 95.5363C37.3489 101.612 35.3513 108.877 35.0457 113.9C34.6449 120.455 36.9036 127.031 40.9352 131.064C44.6612 134.79 50.5568 137 56.6022 137C57.1 137 57.6 136.986 58.0999 136.953C63.1233 136.648 70.387 134.65 76.4647 126.879C82.1357 119.626 85.8982 109.033 88.0536 101.426C90.12 94.1359 91.1522 88.1111 91.3647 86.7956L97.1348 81.0258M66.4141 96.2609L59.5631 89.4104C62.002 88.4188 64.4731 87.5404 66.8755 86.7693C67.5535 87.1922 69.1969 88.3338 69.8405 89.8233C70.4334 91.1954 70.3891 92.7456 70.3161 93.5247C69.278 93.8222 68.3003 94.3788 67.4846 95.1945L66.4141 96.2609ZM68.6262 96.3379C70.565 94.399 73.7224 94.399 75.6613 96.3379C76.6004 97.2768 77.1185 98.5276 77.1185 99.8552C77.1185 101.185 76.6004 102.434 75.6613 103.372L74.2972 104.737L67.9927 104.004L67.2601 97.6999L68.6262 96.3379ZM76.8067 104.516C77.6083 103.715 78.1769 102.743 78.4806 101.683C79.2576 101.608 80.7978 101.563 82.1782 102.158C83.6678 102.802 84.8093 104.445 85.2323 105.123C84.4612 107.523 83.5828 109.997 82.591 112.435L75.7402 105.585L76.8067 104.516ZM89.7415 86.6883C89.6525 87.2267 89.4683 88.2851 89.1809 89.7381C88.8409 89.3172 88.4159 88.8863 87.8896 88.5138C86.7846 87.7326 85.4064 87.5181 84.5321 87.4654C84.4814 86.5892 84.2669 85.2131 83.4837 84.106C83.1112 83.5797 82.6821 83.1547 82.2592 82.8147C83.7144 82.5274 84.7707 82.3453 85.3091 82.2542L89.7415 86.6883ZM82.1621 85.0431C83.0444 86.2917 82.921 88.192 82.921 88.2102C82.9028 88.4449 82.9898 88.6758 83.1557 88.8417C83.3217 89.0076 83.5523 89.0967 83.7871 89.0785C83.8055 89.0785 85.7079 88.9549 86.9566 89.8374C87.9848 90.564 88.517 91.6122 88.7052 92.0454C88.4259 93.3406 88.092 94.8079 87.6973 96.4006C87.2036 95.587 86.4911 94.6581 85.4852 93.802C83.6698 92.2579 81.306 91.9947 80.0208 91.9786C80.0046 90.6935 79.7394 88.3297 78.1972 86.5143C77.3431 85.5106 76.4142 84.7981 75.5986 84.3022C77.1913 83.9076 78.6586 83.5738 79.9519 83.2945C80.3871 83.4826 81.4355 84.017 82.1621 85.0431ZM130.711 37.4189C131.246 36.8847 131.946 36.6175 132.646 36.6175C133.346 36.6175 134.049 36.8847 134.581 37.4189C135.647 38.4855 135.647 40.2219 134.581 41.2905C133.514 42.357 131.778 42.357 130.711 41.2905L130.709 41.2885C129.645 40.2219 129.645 38.4855 130.711 37.4189ZM123.427 39.3416C123.846 38.9206 124.399 38.7122 124.949 38.7122C125.5 38.7122 126.052 38.9226 126.471 39.3416L132.656 45.5263C133.496 46.3662 133.496 47.7322 132.656 48.5721C131.816 49.412 130.45 49.412 129.61 48.5721L123.427 42.3874C122.587 41.5475 122.587 40.1814 123.427 39.3416ZM127.311 48.56L90.6077 85.2636L86.7359 81.392L123.439 44.6905L127.311 48.56ZM73.1659 84.9276C73.7568 85.132 75.5013 85.8424 76.9647 87.5626C78.691 89.5904 78.3813 92.699 78.3794 92.7274C78.3531 92.9722 78.4381 93.2151 78.6121 93.3892C78.7862 93.5631 79.029 93.6502 79.274 93.622C79.3042 93.6179 82.3969 93.2981 84.4389 95.0345C86.1591 96.4977 86.8716 98.2402 87.0741 98.8331C86.7036 100.224 86.2927 101.681 85.8394 103.176C85.1412 102.288 84.105 101.229 82.8198 100.675C81.3383 100.033 79.7494 99.9827 78.7335 100.041C78.7356 99.9786 78.7376 99.9179 78.7376 99.8552C78.7376 98.0945 78.0515 96.437 76.8067 95.1924C75.4731 93.8586 73.7061 93.2192 71.9575 93.2677C72.0161 92.2518 71.9657 90.6631 71.3241 89.1797C70.7695 87.8965 69.7109 86.8604 68.8225 86.1601C70.3202 85.7088 71.7754 85.296 73.1659 84.9276ZM36.6607 113.997C36.9461 109.306 38.8202 102.517 46.1164 96.8113C49.4902 94.1745 53.6291 91.9463 57.9481 90.0843L65.643 97.7788L66.4626 104.828C66.5051 105.2 66.8005 105.495 67.173 105.538L74.2222 106.358L81.9171 114.052C80.0571 118.369 77.8267 122.51 75.1897 125.883C69.4843 133.181 62.6942 135.053 58.0027 135.338C54.8314 135.531 51.5931 135.031 48.705 133.976C49.9092 132.232 51.7691 128.288 47.7416 124.258C44.9425 121.459 42.1779 121.554 40.3523 122.125C39.3869 122.427 38.5855 122.89 38.0208 123.287C36.9664 120.399 36.4665 117.165 36.6607 113.997ZM38.6482 124.829C39.0894 124.487 39.8565 123.975 40.834 123.669C42.8701 123.032 44.8089 123.615 46.5961 125.402C50.0812 128.887 48.0694 132.206 47.1708 133.349C45.2077 132.457 43.459 131.297 42.0807 129.917C40.7004 128.538 39.5408 126.792 38.6482 124.829ZM56.5273 119.16C57.0393 119.672 57.7113 119.927 58.3832 119.927C59.0552 119.927 59.7272 119.672 60.2392 119.16L61.2288 118.171C62.2529 117.147 62.2529 115.483 61.2288 114.459L57.5372 110.767C56.5132 109.743 54.8495 109.743 53.8255 110.767L52.8357 111.757C51.8116 112.781 51.8116 114.445 52.8357 115.469L56.5273 119.16ZM53.9812 112.903L54.9709 111.913C55.3636 111.522 56.0011 111.52 56.3938 111.913L60.0854 115.604C60.4779 115.997 60.4779 116.635 60.0854 117.025L59.0956 118.015C58.7029 118.407 58.0654 118.407 57.6729 118.015L53.9812 114.323C53.5907 113.933 53.5907 113.295 53.9812 112.903Z" stroke="white" stroke-width="2" mask="url(#path-2-outside-1_220_106)"/>
</svg>
