<svg width="19" height="27" viewBox="0 0 19 27" fill="none" xmlns="http://www.w3.org/2000/svg">
<path d="M9.31357 14.6328C10.0174 14.6284 10.7134 14.4842 11.3611 14.2086C12.0088 13.933 12.5953 13.5315 13.0865 13.0273C13.8106 12.281 14.2995 11.3385 14.4925 10.3167C14.6856 9.29497 14.5742 8.23901 14.1724 7.27998C13.7705 6.32094 13.0958 5.50107 12.232 4.92217C11.3682 4.34327 10.3534 4.03085 9.31357 4.02368H9.28146C8.57482 4.0256 7.87568 4.1686 7.22504 4.4443C6.5744 4.71999 5.98536 5.12283 5.49247 5.62918C5.00742 6.11865 4.62473 6.69983 4.36672 7.33879C4.1087 7.97776 3.98054 8.66171 3.98972 9.35074C3.99182 10.0473 4.13127 10.7366 4.40007 11.3793C4.66888 12.0219 5.06177 12.6052 5.55626 13.0958C6.05076 13.5864 6.63714 13.9747 7.28187 14.2385C7.92659 14.5022 8.61699 14.6362 9.31357 14.6328ZM6.16678 6.3035C6.57094 5.88792 7.05413 5.55736 7.58793 5.33127C8.12172 5.10518 8.69534 4.98812 9.27504 4.98698H9.31357C9.88081 4.98614 10.4426 5.09729 10.9668 5.31407C11.491 5.53085 11.9672 5.84899 12.3682 6.25024C12.7691 6.65149 13.0869 7.12795 13.3033 7.65229C13.5197 8.17664 13.6304 8.73855 13.6292 9.30579C13.6367 9.87116 13.5315 10.4324 13.3198 10.9567C13.1081 11.481 12.7941 11.9578 12.3961 12.3595C11.9953 12.7719 11.5162 13.1003 10.9869 13.3252C10.4576 13.5502 9.8887 13.6673 9.31357 13.6695C8.74158 13.6738 8.17439 13.5649 7.6446 13.3493C7.1148 13.1336 6.63286 12.8153 6.22645 12.4128C5.82005 12.0103 5.4972 11.5314 5.27645 11.0037C5.05571 10.476 4.94143 9.9099 4.94018 9.3379C4.93222 8.77591 5.03663 8.218 5.24726 7.69692C5.4579 7.17583 5.77053 6.70209 6.16678 6.3035Z" fill="white"/>
<path d="M1.62658 14.7517L1.64585 14.787C3.23851 17.6106 4.83652 20.4288 6.43988 23.2416L6.6486 23.6109C6.98896 24.2081 7.33896 24.8279 7.71786 25.4187C7.88349 25.6746 8.11094 25.8847 8.3792 26.0295C8.64746 26.1742 8.94789 26.2491 9.25272 26.2471C9.56719 26.2482 9.87684 26.1699 10.153 26.0195C10.4291 25.869 10.6629 25.6513 10.8325 25.3866C10.9321 25.2357 11.0188 25.0655 11.1087 24.921L12.6596 22.1884C14.2822 19.3285 15.9081 16.4675 17.5371 13.6054C18.227 12.3912 18.6013 11.0233 18.6257 9.62696C18.6672 8.39008 18.4484 7.15827 17.9834 6.01136C16.5128 2.47926 13.8445 0.472377 10.0555 0.0421022C8.86435 -0.0757136 7.66174 0.0543873 6.52337 0.424212C4.80912 0.939524 3.28896 1.95743 2.15961 3.34623C0.824415 4.95451 0.0649325 6.96285 0.00181141 9.05219C-0.0188469 10.1405 0.137313 11.2249 0.464197 12.2632C0.766433 13.1299 1.15589 13.9637 1.62658 14.7517ZM2.89172 3.95311C3.90387 2.71311 5.26362 1.80401 6.7963 1.34256C7.80731 1.00863 8.87759 0.892632 9.93667 1.00219C13.3532 1.38751 15.7582 3.19531 17.0844 6.37742C17.5037 7.39466 17.705 8.48855 17.6752 9.58842C17.6545 10.8278 17.3233 12.0423 16.7119 13.1205C15.0828 15.989 13.4538 18.8522 11.8247 21.71L10.277 24.4457C10.1968 24.5902 10.1165 24.7315 10.0298 24.8696C9.9455 24.9969 9.83102 25.1013 9.69655 25.1736C9.56208 25.2459 9.41181 25.2838 9.25914 25.2838C9.11576 25.2871 8.97397 25.2533 8.84742 25.1858C8.72088 25.1183 8.61386 25.0194 8.53667 24.8985C8.17061 24.3302 7.82704 23.7233 7.49309 23.1357L7.27795 22.7535C5.67887 19.945 4.08086 17.1311 2.48392 14.3118L2.46465 14.2797C2.02173 13.5543 1.65276 12.7862 1.36328 11.987C1.07268 11.0411 0.938195 10.0542 0.965113 9.06503C1.02273 7.19457 1.70046 5.39632 2.89172 3.95311Z" fill="white"/>
</svg>
