<svg width="90" height="90" viewBox="0 0 90 90" fill="none" xmlns="http://www.w3.org/2000/svg">
<path d="M78.3794 17.0575L82.4617 12.9754L82.4724 12.9861C83.1207 13.6343 83.9743 13.9593 84.8261 13.9593C85.6779 13.9593 86.5315 13.6343 87.1798 12.9861C88.4781 11.6879 88.4781 9.5754 87.1798 8.27898L86.5619 7.66112C87.4084 7.57184 88.2298 7.20577 88.8763 6.55934C90.3746 5.06114 90.3746 2.62186 88.8763 1.12366C87.378 -0.374552 84.9386 -0.374552 83.4403 1.12366C82.7939 1.77008 82.4278 2.59151 82.3385 3.43793L81.7206 2.82008C80.4224 1.52187 78.3098 1.52187 77.0133 2.82008C75.715 4.11828 75.715 6.22899 77.0133 7.52719L77.024 7.53791L44.2976 40.2663C43.1386 40.4538 37.8205 41.3645 31.3899 43.1877C24.6771 45.0913 15.3302 48.4091 8.92997 53.4145C2.07253 58.7752 0.309956 65.1858 0.0403011 69.618C-0.313286 75.4019 1.67966 81.2036 5.23695 84.7625C8.5246 88.05 13.7266 90 19.0608 90C19.5001 90 19.9412 89.9875 20.3823 89.9589C24.8146 89.6893 31.2238 87.9268 36.5865 81.0697C41.5903 74.6697 44.9101 65.3233 46.812 58.6109C48.6353 52.1788 49.546 46.8627 49.7335 45.702L54.8248 40.611M27.7183 54.0538L21.6734 48.0091C23.8253 47.1341 26.0057 46.3591 28.1254 45.6788C28.7237 46.052 30.1737 47.0591 30.7416 48.3734C31.2649 49.5841 31.2256 50.952 31.1613 51.6395C30.2452 51.902 29.3826 52.393 28.663 53.1127L27.7183 54.0538ZM29.6702 54.1216C31.3809 52.4109 34.1668 52.4109 35.8776 54.1216C36.7062 54.9502 37.1633 56.0537 37.1633 57.2252C37.1633 58.3984 36.7062 59.5001 35.8776 60.3287L34.6739 61.5323L29.1112 60.8859L28.4647 55.3234L29.6702 54.1216ZM36.8883 61.3376C37.5955 60.6305 38.0973 59.7734 38.3652 58.8377C39.0509 58.7716 40.4099 58.7323 41.6278 59.2573C42.9422 59.8251 43.9493 61.2751 44.3226 61.8734C43.6422 63.9912 42.8672 66.1733 41.9921 68.3251L35.9472 62.2805L36.8883 61.3376ZM48.3013 45.6074C48.2227 46.0824 48.0602 47.0163 47.8067 48.2984C47.5066 47.927 47.1316 47.5466 46.6673 47.2181C45.6923 46.5288 44.4762 46.3395 43.7047 46.2931C43.6601 45.5199 43.4708 44.3056 42.7797 43.3288C42.4511 42.8645 42.0725 42.4895 41.6992 42.1895C42.9832 41.936 43.9154 41.7752 44.3904 41.6949L48.3013 45.6074ZM41.6135 44.1556C42.3921 45.2574 42.2832 46.9341 42.2832 46.9502C42.2671 47.1574 42.3439 47.3609 42.4904 47.5074C42.6368 47.6538 42.8404 47.7323 43.0475 47.7163C43.0636 47.7163 44.7422 47.6073 45.8441 48.3859C46.7513 49.027 47.2209 49.952 47.387 50.3341C47.1405 51.477 46.8459 52.7716 46.4977 54.177C46.0619 53.4591 45.4333 52.6395 44.5458 51.8841C42.9439 50.5216 40.8581 50.2895 39.7242 50.2752C39.7099 49.1413 39.4759 47.0556 38.1152 45.4538C37.3616 44.5681 36.5419 43.9395 35.8222 43.502C37.2276 43.1538 38.5223 42.8592 39.6634 42.6127C40.0474 42.7788 40.9724 43.2502 41.6135 44.1556ZM54.8248 40.611L74.8293 20.6075L54.8248 40.611ZM74.8293 20.6075L78.3794 17.0575L74.8293 20.6075ZM84.4511 2.13436C84.9226 1.66294 85.5404 1.42722 86.1583 1.42722C86.7762 1.42722 87.3959 1.66294 87.8655 2.13436C88.8066 3.07543 88.8066 4.60757 87.8655 5.55042C86.9244 6.49149 85.3922 6.49149 84.4511 5.55042L84.4493 5.54863C83.51 4.60757 83.51 3.07543 84.4511 2.13436ZM78.024 3.83078C78.3937 3.45936 78.8812 3.27543 79.367 3.27543C79.8527 3.27543 80.3402 3.46114 80.7099 3.83078L86.1672 9.2879C86.9083 10.029 86.9083 11.2343 86.1672 11.9754C85.4261 12.7165 84.2207 12.7165 83.4796 11.9754L78.024 6.51827C77.2829 5.7772 77.2829 4.57185 78.024 3.83078ZM81.451 11.9647L49.0656 44.3502L45.6494 40.9342L78.0348 8.5504L81.451 11.9647ZM33.6757 44.0538C34.1971 44.2342 35.7365 44.8609 37.0276 46.3788C38.5509 48.1681 38.2777 50.9109 38.2759 50.9359C38.2527 51.152 38.3277 51.3663 38.4813 51.5198C38.6348 51.6734 38.8491 51.7502 39.0652 51.7252C39.092 51.7216 41.8207 51.4395 43.6225 52.9716C45.1405 54.2627 45.7691 55.8002 45.9476 56.3234C45.6208 57.5502 45.2583 58.8359 44.8583 60.1555C44.2422 59.3716 43.3279 58.4377 42.1939 57.9484C40.8867 57.3823 39.4849 57.3377 38.5884 57.3894C38.5902 57.3341 38.592 57.2805 38.592 57.2252C38.592 55.6716 37.9866 54.2091 36.8883 53.1109C35.7115 51.9341 34.1525 51.3698 32.6096 51.4127C32.6614 50.5163 32.6167 49.1145 32.0506 47.8056C31.5613 46.6734 30.6273 45.7591 29.8434 45.1413C31.1649 44.7431 32.4489 44.3788 33.6757 44.0538ZM1.46536 69.7037C1.71716 65.5644 3.3708 59.5734 9.80858 54.5395C12.7855 52.2127 16.4374 50.2466 20.2483 48.6038L27.0379 55.393L27.7611 61.6126C27.7986 61.9412 28.0594 62.2019 28.388 62.2394L34.6079 62.9626L41.3975 69.7519C39.7563 73.5608 37.7884 77.2143 35.4615 80.1911C30.4273 86.6304 24.436 88.2822 20.2965 88.5339C17.4982 88.7036 14.6409 88.2625 12.0926 87.3322C13.1552 85.7929 14.7963 82.3125 11.2426 78.7572C8.77282 76.2876 6.33343 76.3715 4.72265 76.8751C3.87082 77.1411 3.16365 77.5501 2.66542 77.9001C1.73502 75.3519 1.29393 72.4983 1.46536 69.7037ZM3.21901 79.2608C3.60831 78.959 4.28513 78.5072 5.14767 78.2376C6.94417 77.6751 8.65496 78.1893 10.2318 79.7661C13.3069 82.8411 11.5319 85.7697 10.739 86.7786C9.00676 85.9911 7.46384 84.9679 6.24771 83.75C5.0298 82.534 4.00654 80.9929 3.21901 79.2608ZM18.9947 74.259C19.4465 74.7108 20.0394 74.9358 20.6323 74.9358C21.2251 74.9358 21.818 74.7108 22.2698 74.259L23.1431 73.3858C24.0467 72.4822 24.0467 71.0144 23.1431 70.1108L19.8858 66.8537C18.9822 65.9501 17.5143 65.9501 16.6107 66.8537L15.7374 67.7269C14.8338 68.6305 14.8338 70.0983 15.7374 71.0019L18.9947 74.259ZM16.7482 68.7376L17.6214 67.8644C17.9679 67.5198 18.5304 67.518 18.8768 67.8644L22.1341 71.1215C22.4806 71.4679 22.4806 72.0304 22.1341 72.3751L21.2609 73.2483C20.9144 73.5947 20.3519 73.5947 20.0055 73.2483L16.7482 69.9912C16.4035 69.6465 16.4035 69.084 16.7482 68.7376Z" fill="white"/>
</svg>
