<svg width="76" height="84" viewBox="0 0 76 84" fill="none" xmlns="http://www.w3.org/2000/svg">
<path d="M6.22 79.2C5.12667 79.2 4.08 79.0467 3.08 78.74C2.08 78.42 1.28667 78.0133 0.7 77.52L1.6 75.5C2.16 75.94 2.85333 76.3067 3.68 76.6C4.50667 76.8933 5.35333 77.04 6.22 77.04C6.95333 77.04 7.54667 76.96 8 76.8C8.45333 76.64 8.78667 76.4267 9 76.16C9.21333 75.88 9.32 75.5667 9.32 75.22C9.32 74.7933 9.16667 74.4533 8.86 74.2C8.55333 73.9333 8.15333 73.7267 7.66 73.58C7.18 73.42 6.64 73.2733 6.04 73.14C5.45333 73.0067 4.86 72.8533 4.26 72.68C3.67333 72.4933 3.13333 72.26 2.64 71.98C2.16 71.6867 1.76667 71.3 1.46 70.82C1.15333 70.34 1 69.7267 1 68.98C1 68.22 1.2 67.5267 1.6 66.9C2.01333 66.26 2.63333 65.7533 3.46 65.38C4.3 64.9933 5.36 64.8 6.64 64.8C7.48 64.8 8.31333 64.9067 9.14 65.12C9.96667 65.3333 10.6867 65.64 11.3 66.04L10.48 68.06C9.85333 67.6867 9.20667 67.4133 8.54 67.24C7.87333 67.0533 7.23333 66.96 6.62 66.96C5.9 66.96 5.31333 67.0467 4.86 67.22C4.42 67.3933 4.09333 67.62 3.88 67.9C3.68 68.18 3.58 68.5 3.58 68.86C3.58 69.2867 3.72667 69.6333 4.02 69.9C4.32667 70.1533 4.72 70.3533 5.2 70.5C5.69333 70.6467 6.24 70.7933 6.84 70.94C7.44 71.0733 8.03333 71.2267 8.62 71.4C9.22 71.5733 9.76 71.8 10.24 72.08C10.7333 72.36 11.1267 72.74 11.42 73.22C11.7267 73.7 11.88 74.3067 11.88 75.04C11.88 75.7867 11.6733 76.48 11.26 77.12C10.86 77.7467 10.24 78.2533 9.4 78.64C8.56 79.0133 7.5 79.2 6.22 79.2ZM24.2981 65H26.8981V79H24.2981V65ZM17.0581 79H14.4581V65H17.0581V79ZM24.4981 73H16.8381V70.78H24.4981V73ZM28.6695 79L34.9695 65H37.5295L43.8495 79H41.1295L35.7095 66.38H36.7495L31.3495 79H28.6695ZM31.5695 75.76L32.2695 73.72H39.8295L40.5295 75.76H31.5695ZM45.63 79V65H47.77L53.89 75.22H52.77L58.79 65H60.93L60.95 79H58.49L58.47 68.86H58.99L53.87 77.4H52.71L47.51 68.86H48.11V79H45.63ZM69.0716 79.2C67.9782 79.2 66.9316 79.0467 65.9316 78.74C64.9316 78.42 64.1382 78.0133 63.5516 77.52L64.4516 75.5C65.0116 75.94 65.7049 76.3067 66.5316 76.6C67.3582 76.8933 68.2049 77.04 69.0716 77.04C69.8049 77.04 70.3982 76.96 70.8516 76.8C71.3049 76.64 71.6382 76.4267 71.8516 76.16C72.0649 75.88 72.1716 75.5667 72.1716 75.22C72.1716 74.7933 72.0182 74.4533 71.7116 74.2C71.4049 73.9333 71.0049 73.7267 70.5116 73.58C70.0316 73.42 69.4916 73.2733 68.8916 73.14C68.3049 73.0067 67.7116 72.8533 67.1116 72.68C66.5249 72.4933 65.9849 72.26 65.4916 71.98C65.0116 71.6867 64.6182 71.3 64.3116 70.82C64.0049 70.34 63.8516 69.7267 63.8516 68.98C63.8516 68.22 64.0516 67.5267 64.4516 66.9C64.8649 66.26 65.4849 65.7533 66.3116 65.38C67.1516 64.9933 68.2116 64.8 69.4916 64.8C70.3316 64.8 71.1649 64.9067 71.9916 65.12C72.8182 65.3333 73.5382 65.64 74.1516 66.04L73.3316 68.06C72.7049 67.6867 72.0582 67.4133 71.3916 67.24C70.7249 67.0533 70.0849 66.96 69.4716 66.96C68.7516 66.96 68.1649 67.0467 67.7116 67.22C67.2716 67.3933 66.9449 67.62 66.7316 67.9C66.5316 68.18 66.4316 68.5 66.4316 68.86C66.4316 69.2867 66.5782 69.6333 66.8716 69.9C67.1782 70.1533 67.5716 70.3533 68.0516 70.5C68.5449 70.6467 69.0916 70.7933 69.6916 70.94C70.2916 71.0733 70.8849 71.2267 71.4716 71.4C72.0716 71.5733 72.6116 71.8 73.0916 72.08C73.5849 72.36 73.9782 72.74 74.2716 73.22C74.5782 73.7 74.7316 74.3067 74.7316 75.04C74.7316 75.7867 74.5249 76.48 74.1116 77.12C73.7116 77.7467 73.0916 78.2533 72.2516 78.64C71.4116 79.0133 70.3516 79.2 69.0716 79.2Z" fill="white"/>
<path fill-rule="evenodd" clip-rule="evenodd" d="M38.8843 14.4469C41.3897 13.149 42.1803 7.32296 37.0565 2.18939C37.8944 5.35391 32.5098 11.9702 37.2721 14.4469C36.1919 9.36225 39.8906 8.86329 38.8843 14.4469ZM42.2933 7.0785C40.8599 5.8977 41.2378 2.42717 45.3635 0.386198C44.3326 2.0496 46.8278 6.77464 43.3448 7.36028C44.8275 4.63931 42.4946 3.70657 42.2933 7.0785ZM50.6782 11.6271C50.0272 9.88775 52.0911 7.07025 56.6832 7.36391C54.9581 8.29006 54.7548 13.6293 51.4464 12.3951C54.0915 10.781 52.5369 8.80757 50.6763 11.6271H50.6782ZM55.6666 19.7572C55.9725 17.9255 59.168 16.5167 63 19.0693C61.0429 19.0097 58.1986 23.5317 55.9499 20.8087C59.0468 20.7327 58.6874 18.2479 55.6686 19.7572H55.6666ZM55.9212 29.2942C57.1021 27.8608 60.5727 28.2386 62.6159 32.3642C60.9524 31.3334 56.2272 33.8284 55.6394 30.3456C58.3605 31.8283 59.2933 29.4954 55.9212 29.2942ZM51.3745 37.6808C53.1139 37.0299 55.9315 39.0916 55.6378 43.6855C54.7117 41.9606 49.3722 41.7593 50.6064 38.449C52.2206 41.0939 54.1941 39.5394 51.3765 37.681L51.3745 37.6808ZM43.244 42.6689C45.0759 42.9729 46.4847 46.1682 43.932 50C43.9936 48.0429 39.4694 45.1988 42.1925 42.9502C42.2685 46.047 44.7534 45.6897 43.244 42.6689ZM33.7067 42.9236C35.1401 44.1044 34.7622 47.5749 30.6365 49.6159C31.6674 47.9525 29.1722 43.2275 32.6552 42.6397C31.1725 45.3607 33.5054 46.293 33.7067 42.9211V42.9236ZM25.3218 38.375C25.9728 40.1144 23.9089 42.9319 19.3168 42.6382C21.0419 41.712 21.2452 36.3728 24.5536 37.607C21.9085 39.2231 23.4631 41.1945 25.3237 38.377L25.3218 38.375ZM20.3334 30.2449C20.0275 32.0766 16.832 33.4854 13 30.9328C14.9571 30.9944 17.8014 26.4704 20.0501 29.1934C16.9532 29.2694 17.3126 31.7563 20.3314 30.2449H20.3334ZM20.0788 20.7079C18.8979 22.1413 15.4273 21.7635 13.3841 17.6379C15.0476 18.6687 19.7749 16.1737 20.3606 19.6565C17.6395 18.1738 16.7067 20.5067 20.0788 20.7079ZM24.6255 12.3213C22.8861 12.9722 20.0685 10.9084 20.3622 6.31448C21.2883 8.03944 26.6279 8.24279 25.3936 11.551C23.7794 8.90813 21.8059 10.4606 24.6235 12.3211L24.6255 12.3213ZM32.756 7.33315C30.9241 7.02717 29.5153 3.8318 32.068 0C32.0064 1.95707 36.5306 4.80327 33.8075 7.05189C33.7315 3.95514 31.2445 4.31443 32.756 7.33315ZM38.001 16.4921C42.6998 16.4921 46.5095 20.3014 46.5095 25.0023C46.5095 29.7009 42.7 33.5104 38.001 33.5104C33.3021 33.5104 29.4905 29.7011 29.4905 25.0023C29.4905 20.3017 33.3 16.4921 38.001 16.4921ZM44.0428 16.3011C46.8604 16.4305 50.4583 11.7792 48.5895 4.77226C47.7311 7.93268 39.7609 10.9699 42.6461 15.4957C44.2541 10.5528 47.7065 11.9702 44.0428 16.3011ZM47.5812 20.4883C49.9573 22.01 55.3994 19.7818 57.2826 12.7772C54.9599 15.0854 46.5376 13.73 46.7742 19.092C50.6371 15.6153 52.9205 18.5683 47.5792 20.4884L47.5812 20.4883ZM48.5546 25.8852C49.8505 28.3906 55.6789 29.1812 60.8126 24.0576C57.6459 24.8954 51.0314 19.511 48.5546 24.2732C53.6395 23.193 54.1385 26.8915 48.5546 25.8852ZM46.6982 31.0438C46.5688 33.8613 51.2203 37.4611 58.2275 35.5904C55.067 34.732 52.0296 26.7621 47.5036 29.6472C52.4467 31.2551 51.0293 34.7074 46.6982 31.0438ZM42.5108 34.5841C40.9891 36.9601 43.2173 42.402 50.2223 44.2851C47.914 41.9625 49.2694 33.5406 43.9072 33.7772C47.3861 37.642 44.4308 39.9233 42.5107 34.5821L42.5108 34.5841ZM37.1158 35.5575C34.6103 36.8533 33.8197 42.6815 38.9435 47.815C38.1056 44.6485 43.4903 38.0342 38.7279 35.5575C39.8081 40.6422 36.1094 41.1411 37.1158 35.5575ZM31.957 33.7032C29.1394 33.5738 25.5415 38.2252 27.4102 45.2321C28.2687 42.0716 36.2389 39.0344 33.3537 34.5102C31.7456 39.4531 28.2935 38.0361 31.9572 33.7052L31.957 33.7032ZM28.4186 29.516C26.0425 27.9944 20.6004 30.2245 18.7172 37.2272C21.0399 34.919 29.4621 36.2743 29.2256 30.9123C25.3626 34.389 23.0792 31.436 28.4205 29.5159L28.4186 29.516ZM27.4451 24.1212C26.1493 21.6158 20.3209 20.8252 15.1871 25.9489C18.3538 25.111 24.9684 30.4954 27.4451 25.7332C22.3603 26.8134 21.8613 23.1149 27.4451 24.1212ZM29.3016 18.9626C29.431 16.1451 24.7794 12.5453 17.7722 14.4161C20.9328 15.2744 23.9701 23.2443 28.4961 20.3592C23.553 18.7513 24.9705 15.2991 29.3016 18.9626ZM33.4889 15.4223C35.0107 13.0463 32.7824 7.60442 25.7775 5.72133C28.0858 8.04392 26.7304 16.4658 32.0926 16.2292C28.6158 12.3644 31.5689 10.0832 33.489 15.4243L33.4889 15.4223Z" fill="white"/>
</svg>
