<svg width="40" height="38" viewBox="0 0 40 38" fill="none" xmlns="http://www.w3.org/2000/svg">
<path d="M37.1137 1.41024C35.2701 0.0508046 32.955 -0.349864 30.7685 0.32271L23.623 2.52639C22.1367 2.9843 20.8934 3.88583 20.0074 5.05917C19.1213 3.88578 17.878 2.9843 16.3918 2.52639L9.24629 0.32271C7.05979 -0.349864 4.74461 0.0365179 2.90109 1.41024C1.05758 2.76968 0 4.87317 0 7.16247V26.6666C0 29.829 2.02932 32.5763 5.0446 33.5068L19.4069 37.9285C19.5498 37.9714 19.707 38 19.8642 38C19.9214 38 19.9929 37.9714 20.05 37.9714C20.0929 37.9714 20.1358 37.9857 20.1786 37.9857C20.3215 37.9857 20.4645 37.9714 20.5931 37.9285L34.9554 33.5068C37.9708 32.5767 40 29.8293 40 26.6666V7.16247C40 4.87294 38.9425 2.7694 37.0989 1.41024H37.1137ZM2.85829 26.6812V7.17713C2.85829 5.8034 3.48709 4.54416 4.60179 3.72853C5.35919 3.17044 6.23096 2.88424 7.13127 2.88424C7.56 2.88424 7.98873 2.94148 8.40314 3.08458L15.5486 5.28826C17.3636 5.84636 18.5783 7.49194 18.5783 9.39514V34.7087L5.88793 30.8022C4.07295 30.2441 2.85824 28.5985 2.85824 26.6953L2.85829 26.6812ZM37.1566 26.6812C37.1566 28.5844 35.9419 30.23 34.127 30.7881L21.4366 34.6946V9.36684C21.4366 7.46369 22.6513 5.81806 24.4662 5.25996L31.6117 3.05628C32.0262 2.92749 32.4549 2.85595 32.8836 2.85595C33.784 2.85595 34.67 3.14214 35.4131 3.70024C36.5135 4.51586 37.1566 5.77511 37.1566 7.14883L37.1566 26.6812Z" fill="white"/>
</svg>
