<svg width="40" height="40" viewBox="0 0 40 40" fill="none" xmlns="http://www.w3.org/2000/svg">
<path d="M35 5H33.3333V1.66667C33.3333 1.22464 33.1577 0.800716 32.8452 0.488155C32.5326 0.175595 32.1087 0 31.6667 0H8.33333C7.89131 0 7.46738 0.175595 7.15482 0.488155C6.84226 0.800716 6.66667 1.22464 6.66667 1.66667V5H5C3.67392 5 2.40215 5.52678 1.46447 6.46447C0.526784 7.40215 0 8.67392 0 10V11.6667C0 12.9927 0.526784 14.2645 1.46447 15.2022C2.40215 16.1399 3.67392 16.6667 5 16.6667H7.10417C7.62707 18.6807 8.61326 20.5448 9.98411 22.1102C11.355 23.6757 13.0726 24.8992 15 25.6833V30H13.3333C12.0073 30 10.7355 30.5268 9.7978 31.4645C8.86012 32.4021 8.33333 33.6739 8.33333 35V38.3333C8.33333 38.7754 8.50893 39.1993 8.82149 39.5118C9.13405 39.8244 9.55797 40 10 40H30C30.442 40 30.866 39.8244 31.1785 39.5118C31.4911 39.1993 31.6667 38.7754 31.6667 38.3333V35C31.6667 33.6739 31.1399 32.4021 30.2022 31.4645C29.2645 30.5268 27.9927 30 26.6667 30H25V25.6875C26.9306 24.9037 28.6515 23.68 30.0259 22.114C31.4002 20.5479 32.3901 18.6826 32.9167 16.6667H35C36.3261 16.6667 37.5979 16.1399 38.5355 15.2022C39.4732 14.2645 40 12.9927 40 11.6667V10C40 8.67392 39.4732 7.40215 38.5355 6.46447C37.5979 5.52678 36.3261 5 35 5ZM5 13.3333C4.55797 13.3333 4.13405 13.1577 3.82149 12.8452C3.50893 12.5326 3.33333 12.1087 3.33333 11.6667V10C3.33333 9.55797 3.50893 9.13405 3.82149 8.82149C4.13405 8.50893 4.55797 8.33333 5 8.33333H6.66667V13.3333H5ZM28.3333 35V36.6667H11.6667V35C11.6667 34.558 11.8423 34.134 12.1548 33.8215C12.4674 33.5089 12.8913 33.3333 13.3333 33.3333H26.6667C27.1087 33.3333 27.5326 33.5089 27.8452 33.8215C28.1577 34.134 28.3333 34.558 28.3333 35ZM21.6667 30H18.3333V26.55C19.439 26.7056 20.561 26.7056 21.6667 26.55V30ZM20 23.3333C17.3478 23.3333 14.8043 22.2798 12.9289 20.4044C11.0536 18.529 10 15.9855 10 13.3333V3.33333H30V13.3333C30 15.9855 28.9464 18.529 27.0711 20.4044C25.1957 22.2798 22.6522 23.3333 20 23.3333ZM36.6667 11.6667C36.6667 12.1087 36.4911 12.5326 36.1785 12.8452C35.866 13.1577 35.442 13.3333 35 13.3333H33.3333V8.33333H35C35.442 8.33333 35.866 8.50893 36.1785 8.82149C36.4911 9.13405 36.6667 9.55797 36.6667 10V11.6667Z" fill="white"/>
</svg>
