<svg width="30" height="40" viewBox="0 0 30 40" fill="none" xmlns="http://www.w3.org/2000/svg">
<path fill-rule="evenodd" clip-rule="evenodd" d="M15 0C10.9178 0 7.60804 3.41907 7.60804 7.63939V18.8754C7.60804 23.0955 10.9175 26.5171 15 26.5171C19.0825 26.5171 22.392 23.0958 22.392 18.8754V7.63939C22.392 3.4193 19.0825 0 15 0ZM11.5228 7.63939C11.5228 5.65331 13.0789 4.04475 15 4.04475C16.9211 4.04475 18.4772 5.65336 18.4772 7.63939V18.8754C18.4772 20.8615 16.9211 22.4723 15 22.4723C13.0789 22.4723 11.5228 20.8615 11.5228 18.8754V7.63939ZM3.91456 18.8754C3.91456 17.7584 3.03781 16.8542 1.95728 16.8542C0.876743 16.8542 0 17.7584 0 18.8754C0 26.7536 5.685 33.2604 13.0427 34.2503V37.9766C13.0427 39.0936 13.9195 40 15 40C16.0805 40 16.9573 39.0936 16.9573 37.9766V34.2503C24.315 33.2606 30 26.7536 30 18.8754C30 17.7584 29.1233 16.8542 28.0427 16.8542C26.9622 16.8542 26.0854 17.7584 26.0854 18.8754C26.0854 25.207 21.1223 30.3373 15.0002 30.3373C8.87818 30.3373 3.91456 25.2065 3.91456 18.8754Z" fill="white"/>
</svg>
