<svg width="40" height="38" viewBox="0 0 40 38" fill="none" xmlns="http://www.w3.org/2000/svg">
<path d="M9.47997 14.5626L18.3561 5.63271V27.0026C18.3561 27.9336 19.0689 28.6464 20 28.6464C20.931 28.6464 21.6438 27.9336 21.6438 27.0026V5.63271L30.5199 14.5089C30.8496 14.8385 31.2862 15.0012 31.6715 15.0012C32.0546 15.0012 32.4934 14.8364 32.8231 14.5089C33.4802 13.8518 33.4802 12.8094 32.8231 12.2079L21.1513 0.53617C21.0957 0.480521 20.9865 0.371358 20.8773 0.317846C20.8217 0.317846 20.7682 0.262197 20.7682 0.262197C20.7125 0.206548 20.659 0.206548 20.6034 0.153036C20.5477 0.153036 20.4942 0.097386 20.4385 0.097386C20.3829 0.097386 20.3294 0.0417369 20.2737 0.0417369C20.0554 -0.0139123 19.835 -0.0139123 19.6166 0.0417369C19.561 0.0417369 19.5075 0.097386 19.4518 0.097386C19.3962 0.097386 19.3427 0.153036 19.287 0.153036C19.2314 0.153036 19.1779 0.208685 19.1222 0.262197C19.0666 0.262197 19.013 0.317846 19.013 0.317846C18.9039 0.373495 18.8482 0.427008 18.7391 0.53617L7.12319 12.2079C6.4661 12.865 6.4661 13.9074 7.12319 14.5089C7.78029 15.166 8.82287 15.1662 9.47997 14.5626Z" fill="white"/>
<path d="M38.356 25.3033C37.4249 25.3033 36.7122 26.0161 36.7122 26.9472V32.5357C36.7122 33.7407 35.7254 34.6718 34.5761 34.6718L5.42378 34.6739C4.21874 34.6739 3.28767 33.6872 3.28767 32.5378V26.9471C3.28767 26.0161 2.5749 25.3033 1.64383 25.3033C0.712766 25.3033 0 26.0161 0 26.9471V32.5356C0 35.5493 2.41008 37.9594 5.42378 37.9594H34.5739C37.5876 37.9594 39.9977 35.5493 39.9977 32.5356L39.9998 26.9471C39.9998 26.0695 39.2871 25.3033 38.356 25.3033Z" fill="white"/>
</svg>
