<svg width="19" height="19" viewBox="0 0 19 19" fill="none" xmlns="http://www.w3.org/2000/svg">
<path d="M18.5364 16.7622L13.8141 12.0342C15.9326 9.05747 15.6654 4.90603 12.997 2.23425C10.0223 -0.744749 5.20658 -0.744749 2.23103 2.23425C-0.743675 5.21325 -0.743675 10.0347 2.23103 13.0126C4.89945 15.6843 9.04622 15.9514 12.0198 13.8297L16.742 18.5577C18.0067 19.8234 19.8778 18.1048 18.5364 16.7622ZM4.02879 11.2148C2.04835 9.23106 2.04835 6.0172 4.02879 4.03339C6.00922 2.0496 9.21984 2.0496 11.2014 4.03339C13.1818 6.01717 13.1818 9.23103 11.2014 11.2148C9.21981 13.1975 6.00916 13.1975 4.02879 11.2148Z" fill="white" fill-opacity="0.5"/>
</svg>
